<?xml version="1.0" encoding="UTF-8" standalone="no"?>
<!-- Created with Inkscape (http://www.inkscape.org/) -->

<svg
   width="32"
   height="32"
   viewBox="0 0 32 32"
   version="1.1"
   id="svg1"
   inkscape:version="1.4.2 (f4327f4, 2025-05-13)"
   sodipodi:docname="PolarisShuLogo.svg"
   xmlns:inkscape="http://www.inkscape.org/namespaces/inkscape"
   xmlns:sodipodi="http://sodipodi.sourceforge.net/DTD/sodipodi-0.dtd"
   xmlns:xlink="http://www.w3.org/1999/xlink"
   xmlns="http://www.w3.org/2000/svg"
   xmlns:svg="http://www.w3.org/2000/svg">
  <sodipodi:namedview
     id="namedview1"
     pagecolor="#ffffff"
     bordercolor="#000000"
     borderopacity="0.25"
     inkscape:showpageshadow="2"
     inkscape:pageopacity="0.0"
     inkscape:pagecheckerboard="0"
     inkscape:deskcolor="#d1d1d1"
     inkscape:document-units="px"
     inkscape:zoom="8"
     inkscape:cx="-3.5625"
     inkscape:cy="25"
     inkscape:window-width="1626"
     inkscape:window-height="1481"
     inkscape:window-x="921"
     inkscape:window-y="0"
     inkscape:window-maximized="0"
     inkscape:current-layer="layer1" />
  <defs
     id="defs1">
    <linearGradient
       id="linearGradient517"
       inkscape:collect="always">
      <stop
         style="stop-color:#000000;stop-opacity:0;"
         offset="0"
         id="stop517" />
      <stop
         style="stop-color:#000000;stop-opacity:1;"
         offset="1"
         id="stop518" />
    </linearGradient>
    <linearGradient
       id="linearGradient515"
       inkscape:collect="always">
      <stop
         style="stop-color:#000000;stop-opacity:1;"
         offset="0.44630072"
         id="stop515" />
      <stop
         style="stop-color:#000000;stop-opacity:0;"
         offset="1"
         id="stop516" />
    </linearGradient>
    <linearGradient
       id="linearGradient513"
       inkscape:collect="always">
      <stop
         style="stop-color:#000000;stop-opacity:1;"
         offset="0"
         id="stop513" />
      <stop
         style="stop-color:#000000;stop-opacity:0;"
         offset="0.79713601"
         id="stop514" />
    </linearGradient>
    <linearGradient
       id="swatch36">
      <stop
         style="stop-color:#000000;stop-opacity:1;"
         offset="0"
         id="stop36" />
    </linearGradient>
    <linearGradient
       inkscape:collect="always"
       xlink:href="#swatch36"
       id="linearGradient37"
       gradientUnits="userSpaceOnUse"
       x1="11.343285"
       y1="9.859375"
       x2="48.312965"
       y2="9.859375"
       gradientTransform="translate(0,-0.125)" />
    <clipPath
       clipPathUnits="userSpaceOnUse"
       id="clipPath405">
      <path
         id="path406"
         style="fill:#ff0000;fill-opacity:1;fill-rule:nonzero;stroke:none"
         d="m 15.166016,0.46875 v 14.306641 c 0.0061,-0.01748 0.01256,-0.03649 0.01953,-0.05664 0.03997,-0.11552 0.09744,-0.288227 0.136719,-0.410156 0.01042,-0.03235 0.02043,-0.06544 0.03125,-0.09766 h 0.002 c 0.214918,0.125851 0.410718,0.180387 0.585937,0.189453 0.0185,-0.02159 0.02812,-0.0331 0.0332,-0.03906 8.73e-4,-0.0012 0.003,-0.0044 0.0059,-0.0078 -0.110424,-0.117798 -0.216132,-0.241967 -0.3125,-0.371094 v -0.002 l -0.002,-0.002 -0.002,-0.002 v -0.002 c -4.34e-4,-0.0012 -0.0019,-0.0053 -0.002,-0.0059 -0.01036,-0.132837 0.5935,-0.59952 0.671875,-0.664062 0.291571,-0.240449 0.581646,-0.482476 0.882813,-0.710938 0.01508,-0.01144 0.193839,-0.14161 0.257812,-0.185547 -0.197135,0.243721 -0.271442,0.424167 -0.261718,0.558594 0.05229,-0.01785 0.103735,-0.03291 0.15625,-0.04492 0.01204,-0.01478 0.02498,-0.03021 0.03711,-0.04492 0.277513,-0.336726 0.577611,-0.651975 0.880859,-0.964844 -6.29e-4,-0.117465 0.0029,-0.202606 0.02734,-0.376953 0.05374,-0.384048 0.177869,-0.737536 0.369141,-1.074218 0.04551,-0.06948 0.08809,-0.139702 0.136718,-0.207032 0.160866,-0.222748 0.358419,-0.4188294 0.595704,-0.5585935 0.01616,-0.00952 0.03291,-0.018709 0.04883,-0.027344 0.04465,-0.088698 0.09303,-0.1748635 0.152344,-0.2539063 -0.06109,-0.23881 -0.123778,-0.483936 -0.189454,-0.7246094 -0.02384,-0.085244 -0.04805,-0.1705762 -0.07227,-0.2558593 -0.03905,-0.061723 -0.0504,-0.1091967 -0.04102,-0.1445313 C 19.246451,8.0562291 19.172005,7.82249 19.082031,7.5957031 19.040461,7.4964731 19.022161,7.4513935 18.976562,7.3554688 18.928432,7.2542304 18.875207,7.1555142 18.818359,7.0585938 18.461662,7.9344081 17.5118,7.603906 17.806641,6.6054688 c 0.0424,-0.1435678 0.03042,-0.1061423 0.05859,-0.1933594 -0.506579,0.4779916 -1.133542,0.036378 -0.80664,-0.703125 -0.03644,0.00401 -0.07261,0.00558 -0.109375,0.00586 -0.0029,1.179e-4 -0.0069,-1.16e-4 -0.0098,0 -0.0047,0.00231 -0.01,0.00553 -0.01367,0.00781 l -0.002,0.00195 c -0.0042,0.00343 -0.03522,0.031909 -0.04102,0.037109 -0.03208,0.03023 -0.06498,0.062209 -0.0957,0.09375 -0.763098,0.7835599 -1.565247,0.098097 -0.83789,-0.71875 0.01247,-0.014006 0.02425,-0.027284 0.03711,-0.041016 -0.01349,-0.00374 -0.02617,-0.00863 -0.03906,-0.013672 -0.02435,-0.00953 -0.05849,-0.026401 -0.07422,-0.048828 -0.0096,-0.013667 -0.01138,-0.029419 -0.01758,-0.044922 0.0023,-0.013474 0.0015,-0.02809 0.0059,-0.041016 0.0054,-0.015781 0.02133,-0.031557 0.0332,-0.042969 0.01958,-0.018821 0.04247,-0.034982 0.06445,-0.050781 0.07203,-0.049604 0.144744,-0.098021 0.214844,-0.1503906 l 0.002,-0.00195 c -0.0014,-0.0011 -0.0045,-0.00295 -0.0059,-0.00391 v -0.00195 h -0.002 c -0.0024,-0.00311 -0.0063,-0.00998 -0.0078,-0.013672 -0.0073,-0.023174 -4.08e-4,-0.05813 0.03516,-0.087891 0.04383,-0.036869 0.09198,-0.067662 0.140626,-0.097656 0.0025,-0.00151 0.0053,-0.00241 0.0078,-0.00391 -0.04785,-0.048099 -0.007,-0.1064201 0.203125,-0.1933594 0.01084,-0.015296 0.0234,-0.02949 0.03711,-0.042969 0.02036,-0.020018 0.04066,-0.032187 0.05859,-0.035156 h 0.002 0.002 c 0.0013,6.3e-5 0.0027,4e-5 0.0039,0 0.02107,-6.872e-4 0.0373,0.010656 0.04492,0.027344 0.0083,-0.00232 0.0171,-0.0055 0.02539,-0.00781 0.03678,-0.010253 0.0724,-0.018445 0.107422,-0.025391 -0.0052,-0.00388 -0.01009,-0.00805 -0.01563,-0.011719 -0.0542,-0.036129 -0.06187,-0.084919 -0.04102,-0.109375 9.26e-4,-8.995e-4 0.0048,-0.00504 0.0059,-0.00586 0.0044,-0.00291 0.01185,-0.00649 0.01758,-0.00781 h 0.002 v -0.00195 h 0.002 0.002 0.002 c 0.01707,-0.00162 0.03807,0.00475 0.0625,0.019531 0.01425,0.00862 0.02743,0.017793 0.04102,0.027344 0.0078,-0.010825 0.02113,-0.017467 0.03711,-0.017578 0.0074,-5.19e-5 0.01485,6.183e-4 0.02344,0.00391 3.69e-4,-0.0011 0.0015,-0.00481 0.002,-0.00586 5.32e-4,-0.00101 0.0033,-0.0049 0.0039,-0.00586 0.0082,-0.010862 0.02229,-0.01825 0.03906,-0.019531 0.01795,-0.00137 0.04019,0.00365 0.06445,0.019531 0.0095,0.00621 0.01981,0.013101 0.0293,0.019531 0.01218,-8.074e-4 0.02567,-1.413e-4 0.04102,0.00391 0.01466,0.00372 0.02833,0.00793 0.04297,0.011719 0.0033,9.275e-4 0.0063,0.00168 0.0078,0.00195 h 0.002 0.002 c 0.0014,2.376e-4 0.0048,0.00109 0.0078,0.00195 0.03099,0.00895 0.05043,0.024501 0.06055,0.041016 0.07594,-0.015886 0.153109,-0.030167 0.230469,-0.035156 0.01011,-6.519e-4 0.02113,3.335e-4 0.03125,0 0.115947,-0.00382 0.11594,0.1131875 0,0.1171876 -0.0041,1.401e-4 -0.0075,1.046e-4 -0.01172,0 -0.0071,0.013505 -0.02028,0.027025 -0.03906,0.039062 -0.0052,0.00336 -0.0087,0.00604 -0.01172,0.00781 0.05464,0.038334 0.09969,0.083849 0.132812,0.1347656 0.04791,-0.019593 0.09899,-0.037059 0.154297,-0.052734 0.01102,-0.00312 0.02218,-0.00665 0.0332,-0.00977 0.110027,-0.032065 0.220192,-0.061213 0.330079,-0.09375 0.106937,-0.032351 0.216373,-0.060257 0.320312,-0.1015625 0.158817,-0.063115 0.302273,-0.092676 0.427735,-0.09375 0.677482,-0.0058 0.824846,0.7803974 -0.03125,1.125 -0.04057,0.016331 -0.08149,0.031263 -0.123047,0.044922 0.0095,0.00485 0.01982,0.00982 0.03125,0.015625 0.147889,0.075896 0.280067,0.1762885 0.392578,0.2988281 0.06271,0.068295 0.105064,0.1261351 0.160156,0.1992187 0.109185,0.1504083 0.211682,0.3066427 0.3125,0.4628906 0.07657,-0.068122 0.172548,-0.1055916 0.277344,-0.1074218 0.234451,-0.00409 0.50845,0.1697653 0.683593,0.578125 0.03811,0.088863 0.07262,0.1782716 0.105469,0.2695312 0.170633,-0.1715141 0.344226,-0.3408325 0.496094,-0.5292968 0.214461,-0.2661424 0.446709,-0.3831785 0.642578,-0.390625 0.430913,-0.016383 0.689864,0.4924373 0.220703,1.0800781 -0.191909,0.2403729 -0.413172,0.4551914 -0.628906,0.6738281 -0.140424,0.1412803 -0.2812,0.2825518 -0.423828,0.421875 0.01722,0.1117924 0.03336,0.2240363 0.05078,0.3359375 0.0312,0.1977354 0.06804,0.3962162 0.119141,0.5898437 0.03572,0.1308963 0.07792,0.2596353 0.113281,0.390625 0.03242,0.1207248 0.05206,0.2442946 0.07422,0.3671876 0.01225,0.068876 0.0062,0.036832 0.01758,0.09375 0.08117,0.406516 -0.02508,0.689174 -0.199219,0.826172 0.0074,0.01909 0.01503,0.03926 0.02148,0.05859 0.01925,0.0577 0.03148,0.116942 0.04687,0.175782 0.01746,0.159936 0.03291,0.220632 0.0098,0.382812 -0.03091,0.210119 -0.118696,0.416694 -0.27539,0.564453 -0.02958,0.02789 -0.06191,0.05162 -0.0957,0.07422 8.63e-4,0.01115 0.0012,0.02207 0.002,0.0332 0.005,0.07906 0.0024,0.157128 0.0039,0.236328 -0.02112,0.205854 -0.01607,0.296466 -0.08789,0.494141 -0.08452,0.232638 -0.2241,0.425063 -0.419922,0.576172 -0.05572,0.043 -0.118344,0.07552 -0.177734,0.113281 -0.168609,0.073 -0.222177,0.108862 -0.40625,0.138672 -0.0073,0.0012 -0.01423,0.0028 -0.02148,0.0039 0.283184,0.295154 0.334511,0.77466 0.02344,1.261719 0.221356,0.13494 0.389431,0.354109 0.404297,0.53125 0.131275,-0.10222 0.262445,-0.203799 0.394531,-0.304688 0.03693,-0.02821 0.07365,-0.0494 0.109375,-0.07226 0.174491,-0.111688 0.333228,-0.1655 0.466797,-0.167969 0.409125,-0.0075 0.58442,0.431268 0.261719,0.904297 -0.0043,0.02689 -0.0096,0.05391 -0.01563,0.08203 -0.01467,0.06797 -0.02739,0.136727 -0.03711,0.205078 0.01604,-0.0136 0.03257,-0.02764 0.04883,-0.04102 0.07202,-0.05924 0.106632,-0.08232 0.175782,-0.128907 0.198416,-0.133698 0.380588,-0.194819 0.535156,-0.201172 0.463246,-0.01902 0.676478,0.448745 0.320312,0.890626 0.36536,0.09173 0.730934,0.184002 1.095704,0.279296 0.0048,-0.09943 0.0099,-0.19941 0.01367,-0.298828 0.01919,-0.512335 0.271035,-0.767598 0.529296,-0.78125 0.292696,-0.01547 0.593112,0.278695 0.572266,0.859375 -0.0062,0.173479 -0.01417,0.347914 -0.02344,0.521485 0.05386,0.01563 0.106917,0.03064 0.160157,0.04687 0.203982,0.06248 0.362381,0.11557 0.5625,0.1875 0.253134,0.09098 0.501717,0.190512 0.751953,0.289062 0.009,0.0035 0.01835,0.0062 0.02734,0.0098 -0.230469,-2.364802 0.813057,-3.693961 1.960937,-3.675781 0.908788,0.01439 1.883142,0.873643 2.339844,2.732421 0.0799,0.325172 0.124712,0.659323 0.132812,0.994141 0.0025,0.104438 -0.0029,0.208037 -0.0039,0.3125 -0.0069,0.190453 -0.01382,0.381494 -0.02148,0.572266 0.0029,0.02191 0.0041,0.04516 0.0039,0.07031 -3e-4,0.04762 0.0012,0.09497 0.002,0.142578 1.58e-4,0.0093 -1.59e-4,0.01804 0,0.02734 5.29e-4,0.0311 -0.0017,0.05974 -0.0059,0.08594 H 31.5625 V 0.46875 Z m 1.105468,4.3046875 c -0.0097,0.00722 -0.01957,0.016237 -0.0293,0.023437 -0.0092,0.00685 -0.01814,0.012815 -0.02734,0.019531 0.01951,-0.012434 0.03896,-0.024822 0.05859,-0.037109 v -0.00195 -0.00195 -0.00195 z m -0.08398,0.0625 c -0.05346,0.03821 -0.107681,0.075768 -0.162109,0.1132813 -0.0105,0.00767 -0.02092,0.017291 -0.03125,0.025391 v 0.00195 h 0.002 c 0.022,0.00721 0.04773,0.013308 0.07031,0.017578 0.0056,0.00107 0.01188,0.00108 0.01758,0.00195 0.0124,-0.012109 0.02462,-0.023226 0.03711,-0.035156 0.01478,-0.014464 0.02951,-0.029335 0.04492,-0.042969 -0.01406,-0.021369 -0.01021,-0.053416 0.02148,-0.082031 z m -0.21875,0.1582031 v 0.00195 h 0.002 v -0.00195 z m 0,0.00195 h -0.002 v 0.00195 h 0.002 z m 1.863281,1.09375 c 0.01435,0.00947 0.0313,0.015378 0.05078,0.017578 -0.01684,-0.00598 -0.0339,-0.011718 -0.05078,-0.017578 z M 17.185547,17.021484 c -0.681231,1.082217 -1.604654,1.128324 -2.019531,0.609375 v 1.392579 h 8.382812 c -0.01258,-0.04413 -0.0227,-0.09099 -0.03125,-0.140626 -0.0083,-0.04788 -0.01826,-0.09489 -0.02539,-0.142578 -0.190402,-0.0332 -0.379786,-0.07227 -0.566407,-0.123046 -0.07007,-0.01972 -0.139234,-0.03973 -0.208984,-0.06055 -0.432947,-0.129257 -0.854062,-0.29282 -1.271485,-0.464844 -0.05255,-0.02227 -0.105656,-0.04392 -0.158203,-0.06641 -0.0878,0.322823 -0.308831,0.477974 -0.527343,0.46289 -0.02485,0.0082 -0.05138,0.01391 -0.07813,0.01758 -0.540742,0.463532 -1.124642,0.02837 -0.835938,-0.626953 -0.02328,-0.03725 -0.04738,-0.07371 -0.07031,-0.111328 -0.07081,-0.116158 -0.139627,-0.233528 -0.207032,-0.351562 -0.132989,0.118237 -0.265572,0.238486 -0.396484,0.359375 -0.534205,0.493307 -1.045666,0.299826 -1.091797,-0.103516 -0.387643,0.142786 -0.80487,-0.09934 -0.894531,-0.650391 z m 7.455078,1.84961 c 0.0061,0.05333 0.0077,0.104555 0.0059,0.152344 h 1.458985 c 0.0011,-0.02751 0.0028,-0.05453 0.0039,-0.08203 l -0.002,-0.002 h -0.002 c -0.07571,-0.0049 -0.150868,-0.01004 -0.226563,-0.01563 -0.278128,-0.01891 -0.556943,-0.04226 -0.835937,-0.03906 -0.133889,-1.11e-4 -0.268669,-0.004 -0.402344,-0.01367 z" />
    </clipPath>
    <clipPath
       clipPathUnits="userSpaceOnUse"
       id="clipPath501">
      <path
         id="path502"
         style="fill:#ff0000;fill-opacity:1;fill-rule:nonzero;stroke:none"
         d="m 0.6875,0.46875 v 18.523438 h 0.9863281 c 4e-7,-0.0059 -1.6e-6,-0.01178 0,-0.01758 1.06e-5,-0.03225 -4.84e-5,-0.06345 0,-0.0957 6.45e-5,-0.03713 -2.891e-4,-0.0742 0,-0.111328 3.4e-4,-0.03484 7.032e-4,-0.07065 0.00195,-0.105469 0.00105,-0.02927 0.00355,-0.05861 0.00391,-0.08789 2e-4,-0.03176 0.00118,-0.06199 0.00195,-0.09375 8.9e-4,-0.03352 5.432e-4,-0.06805 0.00195,-0.101563 0.00121,-0.03165 0.00145,-0.06209 0.00195,-0.09375 -1.99e-5,-0.03749 1.01e-4,-0.07578 0,-0.113281 -9.34e-5,-0.02788 -0.00139,-0.0561 -0.00195,-0.08398 -4.7e-4,-0.01884 -4.732e-4,-0.03785 -0.00195,-0.05664 -0.00214,-0.0279 -0.00319,-0.056 -0.00391,-0.08398 -0.00142,-0.0281 -0.00552,-0.05582 -0.00586,-0.08398 -0.00107,-0.03268 -0.00328,-0.06497 -0.00391,-0.09766 v -0.08984 c -1e-7,-0.273437 0.1392369,-0.410156 0.2773437,-0.410156 0.084945,0 0.1700864,0.05085 0.2226563,0.154297 0.027914,-0.0123 0.056648,-0.01758 0.085937,-0.01758 0.025057,0 0.050031,0.0047 0.074219,0.01367 -6.369e-4,-0.02078 -0.00125,-0.04173 -0.00195,-0.0625 -0.00587,-0.144978 -0.022869,-0.287391 -0.039063,-0.431641 -0.00422,-0.123722 -0.04326,-0.274432 -0.039063,-0.404297 -0.00234,-0.07097 -0.0067,-0.142221 -0.013672,-0.21289 -0.017256,-0.181454 -0.029361,-0.362556 -0.025391,-0.544922 0.047553,-2.186983 1.1531276,-3.281121 2.2460937,-3.28125 0.9401442,-1.12e-4 1.8712583,0.809169 2.1132813,2.427734 0.238614,-0.221084 0.4904133,-0.42764 0.7578125,-0.613281 0.31744,-1.410363 1.2038367,-2.115234 2.0898437,-2.115235 0.1316328,0 0.2628457,0.01579 0.3925782,0.04687 0.154996,-0.227477 0.3521125,-0.453401 0.5937505,-0.671875 C 8.4945366,11.434618 7.7675779,9.4517482 9.4316406,7.8710938 9.2136873,6.7355282 9.4518886,5.893676 9.9277344,5.4140625 9.447378,4.0174167 10.292569,2.8065497 11.789062,2.8671875 c 0.618514,0.025062 1.347561,0.2670464 2.140626,0.8027344 0.186825,0.1261962 0.377553,0.2479686 0.582031,0.34375 0.05064,0.020733 0.103255,0.03909 0.15625,0.052734 1.487866,0.3830876 2.280294,1.1835739 2.501953,2.0019532 V 0.46875 Z m 16.482422,6.5644531 c -0.156369,0.5595918 -0.588623,1.0453198 -1.248047,1.3027344 -0.165575,0.4221344 -0.475317,0.8559109 -0.941406,1.2617187 0.207146,0.7004488 0.191908,1.3157688 0.02148,1.8046878 0.469736,-0.434654 0.943893,-0.865182 1.464844,-1.238282 0.239453,-0.1714854 0.474355,-0.3148872 0.703125,-0.4335932 z m -5.470703,8.3281249 c -0.02579,0.0026 -0.05071,0.0039 -0.07617,0.0059 4.44e-4,0.03007 -1.9e-5,0.0613 0,0.0918 10e-6,0.01651 2.3e-5,0.03232 0,0.04883 0.02019,-0.02108 0.04036,-0.04145 0.06055,-0.0625 0.0047,-0.02793 0.0099,-0.05576 0.01563,-0.08398 z m 4.21289,3.021484 c -0.308292,0.261149 -0.615993,0.462593 -0.914062,0.609376 h 2.171875 v -0.154297 c -0.427718,0.09118 -0.891721,-0.05684 -1.257813,-0.455079 z" />
    </clipPath>
    <clipPath
       clipPathUnits="userSpaceOnUse"
       id="clipPath505">
      <path
         id="path506"
         style="fill:#ff0000;fill-opacity:1;fill-rule:nonzero;stroke:none"
         d="M 0.6875,14.443359 V 31.46875 h 30.875 V 14.443359 h -1.880859 c 0.801418,0.496338 1.29264,1.775252 0.878906,3.607422 v 0.002 0.002 0.002 0.002 c 0.0028,0.01938 0.0051,0.03903 0.0059,0.05859 5.03e-4,0.01436 -1.3e-4,0.0286 0,0.04297 9e-5,0.01166 -1.7e-5,0.0235 0,0.03516 1.4e-5,0.01116 -2e-6,0.02401 0,0.03516 v 0.03906 c 1.17e-4,0.01677 5.47e-4,0.03207 0,0.04883 -9e-4,0.02014 -0.0046,0.04044 -0.0059,0.06055 -0.001,0.01753 -0.0016,0.03518 -0.002,0.05273 -2.68e-4,0.02053 7.23e-4,0.04198 0,0.0625 -0.0011,0.01576 -0.0015,0.03111 -0.002,0.04687 -9e-4,0.01918 -0.0028,0.03746 -0.0039,0.05664 -5.89e-4,0.01136 -0.0018,0.02379 -0.002,0.03516 -1.45e-4,0.01287 3.6e-5,0.02424 0,0.03711 3e-4,0.01791 -4.86e-4,0.03683 -0.002,0.05469 -7.97e-4,0.01446 -0.0017,0.0285 -0.002,0.04297 -3.3e-4,0.02933 -0.0061,0.05737 -0.01172,0.08594 -0.0017,0.0092 -0.0049,0.01804 -0.0059,0.02734 -3.74e-4,0.0053 -0.0018,0.01028 -0.002,0.01563 -3.2e-5,0.0017 2.9e-5,0.0042 0,0.0059 -2.4e-5,0.0014 4.2e-5,0.0016 0,0.0039 v 0.002 c 2.5e-5,4.81e-4 6.4e-5,0.0023 0,0.0039 v 0.002 h 0.002 c 4e-4,0.0118 1.83e-4,0.02135 0.002,0.0332 1.76e-4,8.21e-4 0.0017,0.005 0.002,0.0059 v 0.002 0.002 c 10e-4,0.0112 0.0014,0.02198 0.002,0.0332 v 0.002 c 9.39e-4,0.0094 0.002,0.01257 0.0039,0.02734 0.0015,0.01661 0.0022,0.02955 0.0039,0.04687 0.0011,0.01205 0.0033,0.02307 0.0039,0.03516 0.01277,0.258197 -0.157306,0.352715 -0.277344,0.271485 -0.804524,3.769917 -4.342321,3.437142 -4.429687,0.244141 -0.01517,0.0036 -0.02991,0.0057 -0.04492,0.0078 -0.225243,0.76697 -1.138819,0.599543 -1.054688,-0.378906 v -0.002 -0.002 -0.002 c -0.04078,-0.03707 -0.0763,-0.08271 -0.105468,-0.136718 -0.02816,0.0191 -0.05607,0.03579 -0.08398,0.05078 -0.367256,0.727114 -1.045998,0.588795 -1.091797,0.01758 -0.129915,-0.0027 -0.248833,-0.06168 -0.332031,-0.167969 -0.109441,0.08605 -0.237259,0.159175 -0.380859,0.216797 -0.541119,0.816814 -1.512641,0.877764 -2.138672,0.15625 -0.02962,0.0012 -0.0602,0.0027 -0.08984,0.0039 -0.14352,-0.009 -0.264591,-0.01403 -0.373047,-0.01953 -1.245355,2.120682 -3.430222,1.241644 -2.921875,-0.910156 -0.106956,0.02876 -0.210806,0.0471 -0.3125,0.05469 -0.74272,0.798652 -1.581977,0.899056 -2.130859,0.544922 -0.615252,0.498115 -1.259076,0.563397 -1.728516,0.322266 -0.16531,0.0092 -0.330807,0.01328 -0.496093,0.01758 -0.256131,0.0059 -0.511395,0.0087 -0.767579,0.0098 -0.137393,6.9e-4 -0.275416,-0.0088 -0.410156,0.02148 -0.152074,0.04835 -0.304006,0.09691 -0.453125,0.154297 -0.272263,0.0972 -0.532281,0.224216 -0.796875,0.339844 -0.3090782,0.135101 -0.6219623,0.25918 -0.939453,0.373046 -0.4202374,0.154995 -0.8617791,0.22554 -1.3066406,0.25586 -0.3250118,0.02359 -0.6483305,-0.0093 -0.9707032,-0.04687 -0.04995,-0.0068 -0.1004406,-0.01469 -0.1503906,-0.02148 -1.336132,-0.183516 -2.2025706,-0.731516 -2.6328125,-1.384765 -0.047262,0.22568 -0.1771733,0.330484 -0.2988281,0.332031 -0.1052713,0.07473 -0.2417376,0.05038 -0.3261719,-0.07227 -0.040052,0.115816 -0.1127957,0.185714 -0.1914062,0.208985 -0.1351675,0.142777 -0.3552528,0.08738 -0.421875,-0.162109 -0.091803,0.0967 -0.2198704,0.104721 -0.3144531,0.02539 -0.130213,0.200804 -0.3840475,0.161708 -0.4570313,-0.09766 -0.1549313,0.215602 -0.4743863,0.113416 -0.4707031,-0.302734 3.221e-4,-0.03645 0.00141,-0.07293 0.00195,-0.109376 9.2e-4,-0.0581 0.00271,-0.115728 0.00391,-0.173828 -1.382e-4,-0.05431 -0.00136,-0.107799 -0.00195,-0.162109 -6.5e-4,-0.05359 -4.831e-4,-0.108539 -0.00195,-0.162109 -0.00122,-0.05275 -0.00246,-0.105444 -0.00195,-0.158204 2.7e-4,-0.03691 9.663e-4,-0.07247 0.00195,-0.109374 0.00143,-0.05003 0.00262,-0.100441 0.00586,-0.150391 0.00288,-0.04602 0.00654,-0.09257 0.00781,-0.138672 0.00177,-0.03412 0.00346,-0.06766 0.00781,-0.101563 0.030438,-0.237313 0.1544678,-0.358277 0.2773437,-0.373046 0.013055,-0.0016 0.026133,-0.0028 0.039063,-0.002 0.049738,-0.05498 0.1119853,-0.08203 0.1738281,-0.08203 0.058194,0 0.1164154,0.02358 0.1640626,0.07227 0.030316,-0.01351 0.061964,-0.01891 0.09375,-0.01758 0.065187,0.0027 0.1304893,0.03629 0.1796874,0.103515 0.046238,-0.07329 0.1058328,-0.116577 0.1679688,-0.132812 0.013838,-0.241797 0.1420274,-0.371309 0.2714844,-0.371094 0.1255562,2.09e-4 0.2519123,0.121683 0.2753906,0.376953 7.9e-4,0.0085 0.00132,0.01679 0.00195,0.02539 0.00229,0.03078 0.00354,0.06298 0.00586,0.09375 0.0022,0.02922 0.00493,0.05751 0.00781,0.08594 0.044222,-0.07697 0.1169793,-0.11725 0.1953125,-0.115234 0.064163,0.0016 0.1323047,0.0309 0.1914063,0.0918 0.026833,-0.0069 0.054307,-0.0095 0.082031,-0.0098 0.03208,-3.09e-4 0.064417,0.0045 0.095703,0.01172 0.3216558,-0.966637 1.5226128,-1.719316 3.484375,-1.414063 l 0.044922,0.0059 c 0.1744225,0.02036 0.1085886,0.02179 0.1992188,0.02539 0.00406,1.06e-4 0.0058,2.3e-5 0.00781,0 v 0.002 h -0.00195 l -0.00195,0.002 h -0.00195 v 0.002 0.002 H 7.625 v 0.002 H 7.62695 7.6289 c 0.016139,0.0011 0.059394,-0.01187 0.074219,-0.01563 0.2244118,-0.0793 0.4442508,-0.167822 0.6621094,-0.263672 0.3366546,-0.14507 0.6666934,-0.307436 1.0136718,-0.427734 0.4218973,-0.155408 0.8509258,-0.299153 1.2949218,-0.376953 0.362719,-0.05517 0.72638,-0.08878 1.09375,-0.07813 0.224748,-9e-4 0.449122,-0.0029 0.673828,-0.0078 0.150974,-0.0038 0.302476,-0.0064 0.453125,-0.01758 h 0.002 v 0.002 0.002 c 0.03669,-0.01121 0.07359,-0.02343 0.109375,-0.03711 0.0096,-0.0079 0.01923,-0.01495 0.02734,-0.02148 l 0.002,-0.002 0.002,-0.002 0.002,-0.002 0.002,-0.002 0.002,-0.002 h 0.002 l 0.002,-0.002 c 0.0058,-0.006 0.01063,-0.01225 0.01367,-0.01563 l 0.002,-0.002 c 0.07055,-0.07516 0.111393,-0.117968 0.126953,-0.134766 l 0.002,-0.002 v -0.002 c 0.02765,-0.09413 0.06093,-0.190659 0.09961,-0.289063 z m 22.248047,0 c 0.03044,0.236769 0.06189,0.544588 0.07813,0.730469 0.04068,0.466573 0.06454,0.934702 0.08789,1.402344 0.21429,0.174988 0.367356,0.376278 0.458985,0.58789 0.06556,-0.114405 0.134962,-0.226375 0.207031,-0.330078 0.04687,-0.06745 0.09964,-0.130359 0.152344,-0.193359 0.10295,-0.123085 0.116204,-0.133086 0.216797,-0.228516 0.22317,-0.211716 0.435645,-0.299703 0.609375,-0.300781 0.236863,-0.0015 0.402574,0.160674 0.423828,0.400391 0.09135,-0.0379 0.177695,-0.05547 0.257812,-0.05664 0.241823,-0.0035 0.420995,0.146599 0.458985,0.369141 0.141446,-0.04827 0.270948,-0.06734 0.384765,-0.06445 0.02612,6.74e-4 0.05175,0.0029 0.07617,0.0059 0.01057,-0.03258 0.02136,-0.06541 0.0332,-0.09766 0.427968,-1.16511 1.031076,-1.886483 1.652344,-2.22461 z" />
    </clipPath>
    <linearGradient
       inkscape:collect="always"
       xlink:href="#linearGradient513"
       id="linearGradient514"
       x1="26.152241"
       y1="10.234375"
       x2="28.285259"
       y2="10.234375"
       gradientUnits="userSpaceOnUse"
       gradientTransform="translate(0.5,-0.0625)" />
    <linearGradient
       inkscape:collect="always"
       xlink:href="#linearGradient515"
       id="linearGradient516"
       x1="26.574996"
       y1="4.90625"
       x2="27.768754"
       y2="4.90625"
       gradientUnits="userSpaceOnUse"
       gradientTransform="matrix(1.6378669,0,0,1.4756018,-16.582039,-2.6459211)" />
    <linearGradient
       inkscape:collect="always"
       xlink:href="#linearGradient517"
       id="linearGradient518"
       x1="20.498203"
       y1="4.5625"
       x2="23.158047"
       y2="4.5625"
       gradientUnits="userSpaceOnUse" />
  </defs>
  <g
     inkscape:label="图层 1"
     inkscape:groupmode="layer"
     id="layer1">
    <path
       d="M 16.144531,15.326172 A 17.788534,8.7885332 0 0 1 2.515625,18.492187 17.788534,8.7885332 0 0 1 1.1875,18.466797 v 9.324219 a 17.788534,8.7885332 0 0 1 0.265625,-0.002 17.788534,8.7885332 0 0 1 13.693359,3.179688 h 0.498047 a 17.788534,8.7885332 0 0 1 13.371094,-2.992188 17.788534,8.7885332 0 0 1 2.046875,0.05859 v -9.533203 a 17.789,8.7885332 0 0 1 -1.234375,0.02148 17.789,8.7885332 0 0 1 -13.683594,-3.197265 z"
       style="fill:none;stroke:#000000"
       id="path40"
       clip-path="url(#clipPath505)" />
    <path
       d="M 1.1875,0.96875 V 18.466797 A 17.788534,8.7885332 0 0 0 2.515625,18.492187 17.788534,8.7885332 0 0 0 16.144531,15.326172 17.789,8.7885332 0 0 1 12.039063,9.734375 17.789,8.7885332 0 0 1 16.191406,4.1035156 17.788534,8.7885332 0 0 0 4.4882812,0.96875 Z"
       style="stroke:#000000;fill:none"
       id="path41"
       clip-path="url(#clipPath501)" />
    <path
       d="m 16.191406,4.1035156 a 17.788534,8.7885332 0 0 1 4.113281,5.5996094 17.788534,8.7885332 0 0 1 -4.160156,5.623047 17.789,8.7885332 0 0 0 13.683594,3.197265 17.789,8.7885332 0 0 0 1.234375,-0.02148 V 0.98632813 A 17.789,8.7885332 0 0 0 30.542969,0.96875 H 28.544922 A 17.789,8.7885332 0 0 0 16.191406,4.1035156 Z"
       style="stroke:url(#linearGradient37);fill:none"
       id="path42"
       clip-path="url(#clipPath405)" />
    <path
       d="M 6.8208335,15.945197 H 13.919522 V 11.923865 H 8.0480005 V 10.526783 H 13.919522 V 7.2795104 h 1.566998 v 3.2472726 h 6.513425 l -0.349271,5.418414 h 2.59593 c -0.02517,1.397083 -0.06923,2.838217 -0.132156,4.323404 -0.07552,2.076744 -1.057252,3.10253 -2.945201,3.077357 -0.981733,0.01259 -2.038985,-0.03147 -3.171754,-0.132156 -0.06293,-0.578971 -0.157331,-1.13277 -0.283193,-1.661396 1.157943,0.213968 2.24666,0.320952 3.266152,0.320952 1.044665,0.02517 1.592171,-0.547505 1.642516,-1.718034 0.03776,-0.893629 0.06293,-1.831311 0.07552,-2.813044 H 15.48652 v 8.344735 H 13.919522 V 17.34228 H 6.8208335 Z M 20.395188,11.923865 H 15.48652 v 4.021332 h 4.644355 z"
       id="text506"
       style="font-size:19.3326px;fill:none;stroke:#000000;stroke-width:1.611;stroke-dasharray:none"
       aria-label="书"
       sodipodi:nodetypes="cccccccccccccccccccccccccccccc" />
    <path
       sodipodi:type="star"
       style="fill:none;fill-opacity:1;stroke:#000000;stroke-width:1.6;stroke-dasharray:none;stroke-opacity:1"
       id="path507"
       inkscape:flatsided="false"
       sodipodi:sides="4"
       sodipodi:cx="24.980757"
       sodipodi:cy="4.7950678"
       sodipodi:r1="0.57896912"
       sodipodi:r2="1.8008567"
       sodipodi:arg1="0.83939965"
       sodipodi:arg2="1.6247978"
       inkscape:rounded="0"
       inkscape:randomized="0"
       d="m 25.367456,5.2259611 -0.483901,1.3673382 -0.333692,-1.4115324 -1.367338,-0.4839008 1.411533,-0.3336916 0.4839,-1.3673383 0.333692,1.4115325 1.367338,0.4839007 z"
       transform="translate(-0.01104854,2.4969708)" />
    <path
       style="fill:none;fill-opacity:1;stroke:#000000;stroke-width:1.111;stroke-dasharray:none;stroke-opacity:1"
       d="m 1.1932427,25.544232 c 1.152e-4,3.2e-5 11.5919063,0.25644 14.1642323,5.23701"
       id="path508"
       sodipodi:nodetypes="cc" />
    <path
       style="fill:none;fill-opacity:1;stroke:#000000;stroke-width:1.111;stroke-dasharray:none;stroke-opacity:1"
       d="M 31.049556,25.575444 C 31.109966,25.558184 16.305923,26.461701 15.5,30.90625"
       id="path509"
       sodipodi:nodetypes="cc" />
    <path
       style="fill:none;fill-opacity:1;stroke:url(#linearGradient518);stroke-width:0.2;stroke-dasharray:none;stroke-opacity:1"
       d="M 23.09375,5.625 20.5625,3.5"
       id="path510" />
    <path
       style="fill:none;fill-opacity:1;stroke:url(#linearGradient516);stroke-width:0.211;stroke-dasharray:none"
       d="M 28.7664,3.5331612 27.07735,5.6543388"
       id="path511" />
    <path
       style="fill:none;fill-opacity:1;stroke:url(#linearGradient514);stroke-width:0.2;stroke-dasharray:none"
       d="m 26.71875,9.28125 2,1.78125"
       id="path512" />
    <path
       sodipodi:type="star"
       style="fill:#000000;fill-opacity:1;stroke:#000000;stroke-width:1.6;stroke-dasharray:none;stroke-opacity:1"
       id="path518"
       inkscape:flatsided="false"
       sodipodi:sides="4"
       sodipodi:cx="24.980757"
       sodipodi:cy="4.7950678"
       sodipodi:r1="13.952871"
       sodipodi:r2="4.5951598"
       sodipodi:arg1="1.8517845"
       sodipodi:arg2="2.6107425"
       inkscape:rounded="0"
       inkscape:randomized="0"
       d="M 21.111553,18.200734 21.017997,7.1214442 11.575091,0.92586398 22.65438,0.83230759 l 6.195581,-9.44290579 0.09356,11.0792896 9.442906,6.1955802 -11.07929,0.093556 z"
       transform="matrix(0.20208076,0,0,0.21330683,0.62545966,4.914173)" />
    <path
       sodipodi:type="star"
       style="fill:#000000;fill-opacity:1;stroke:#000000;stroke-width:1.6;stroke-dasharray:none;stroke-opacity:1"
       id="path519"
       inkscape:flatsided="false"
       sodipodi:sides="4"
       sodipodi:cx="24.980757"
       sodipodi:cy="4.7950678"
       sodipodi:r1="13.952871"
       sodipodi:r2="4.59516"
       sodipodi:arg1="1.8517845"
       sodipodi:arg2="2.6107425"
       inkscape:rounded="0"
       inkscape:randomized="0"
       d="M 21.111553,18.200734 21.017997,7.1214442 11.575091,0.92586398 22.65438,0.83230759 l 6.195581,-9.44290579 0.09356,11.0792896 9.442906,6.1955802 -11.07929,0.093556 z"
       transform="matrix(0.1107198,0,0,0.11687054,2.5351948,21.986829)" />
  </g>
</svg>
